<svg width="40" height="38" viewBox="0 0 40 38" fill="none" xmlns="http://www.w3.org/2000/svg">
<path fill-rule="evenodd" clip-rule="evenodd" d="M18.6012 10.206C19.1123 9.16974 19.6548 8.15513 20.2103 7.2526C22.8615 2.94607 25.0109 1.57426 26.05 1.01284C28.0955 -0.0925068 29.6601 0.0267309 30.1547 0.0618741C31.012 0.122544 31.9798 0.374326 32.7254 0.736249C34.2821 1.49174 37.1527 3.19732 38.4382 6.85956C38.8675 8.08257 40.3654 12.6477 35.9993 20.0834C33.2198 24.8174 29.4748 28.3182 28.1346 29.5876C27.8988 29.8096 26.3007 31.3552 23.4914 33.5285C20.3356 35.9693 17.3257 37.8034 17.1703 37.8716C16.4956 38.1671 15.7083 37.7597 14.0652 36.0585C13.7249 35.7071 12.4363 34.373 10.1361 31.3483C9.44164 30.4356 6.92135 27.0716 4.65336 23.1501C1.61009 17.8886 -0.921124 11.9375 0.324653 7.63427C1.09112 4.98629 3.16199 3.94354 3.38862 3.81766C6.49262 2.09214 9.71444 3.39034 10.1962 3.57218C11.3298 3.99984 13.8468 5.11865 17.0422 8.44135C17.8722 9.30454 18.4362 9.99867 18.6012 10.206ZM17.4795 12.6101C17.2378 12.5804 17.069 12.4926 17.0249 12.4699C16.7744 12.3398 16.569 12.094 16.5973 12.1277C16.9318 12.5283 14.7975 9.97244 11.5236 8.07733C7.82613 5.93709 5.86408 6.80465 5.08439 7.20119C4.41677 7.54056 3.26926 8.29536 3.45777 11.3271C3.76217 16.2199 7.52844 24.2392 12.3665 31.1437C13.1953 32.3256 15.5598 35.464 16.7224 36.2176C18.8092 34.957 20.7517 33.6072 23.2304 31.4409C24.0555 30.7188 25.0701 29.7082 25.226 29.5544C26.3224 28.4616 27.5226 27.1958 29.0065 25.2798C33.1777 19.8937 35.7541 14.0414 34.9248 9.80162C34.7744 9.03267 34.4298 7.4687 32.6616 6.02591C31.8344 5.35119 30.8823 4.90272 30.7172 4.82492C30.5045 4.72491 29.9392 4.39971 28.9084 4.46492C28.8455 4.46895 27.9109 4.46038 26.3157 5.43879C24.38 6.6258 22.6569 8.60605 21.4555 10.041C18.9899 12.9864 16.7171 16.6177 16.6554 16.6633C16.5694 16.7269 16.4989 16.8229 16.3971 16.8537C16.3941 16.8547 16.1023 16.8301 16.1014 16.8289C16.0399 16.7486 15.9464 16.685 15.9182 16.5871C15.8569 16.3751 15.8943 16.3708 15.9772 16.1671C16.3711 15.2009 16.8858 13.9469 17.4795 12.6101Z" fill="#2C3036"/>
</svg>
