<svg width="98" height="118" viewBox="0 0 98 118" fill="none" xmlns="http://www.w3.org/2000/svg">
<path fill-rule="evenodd" clip-rule="evenodd" d="M92.5766 110.801L92.5766 114.694L87.4505 113.776C82.4009 112.857 72.1486 111.021 61.9729 111.939C56.8851 112.398 51.7781 113.546 46.6711 114.694C41.5641 115.841 36.4571 116.989 31.3693 117.448C21.1936 118.366 10.9413 116.53 5.89174 115.612L0.765625 114.694V110.688C0.826876 97.0685 11.8866 86.0469 25.5202 86.0469L67.822 86.0469C81.4643 86.0469 92.5291 97.0824 92.5764 110.714L92.5766 110.801Z" fill="#2C3036"/>
<path fill-rule="evenodd" clip-rule="evenodd" d="M72.8364 45.2712C73.0402 40.8254 72.5813 37.866 71.2212 35.738C71.2212 35.738 71.2212 38.8023 70.2861 39.9939C70.3711 34.6315 69.7148 31.2171 67.1408 26.2048C67.1408 26.2048 67.0864 26.1912 66.9926 26.1664L66.9708 26.2106C60.5101 44.1647 59.83 58.5758 64.4205 86.4683H50.9891C52.5192 57.0262 55.3245 41.1005 65.4406 25.6941L65.4439 25.6886C65.1544 25.5824 64.8812 25.468 64.6755 25.3536C64.209 25.5878 63.6859 26.465 63.0984 27.4502C62.3903 28.6374 61.5888 29.9815 60.6801 30.5458C60.7126 30.2741 60.6862 30.1319 60.6472 29.9224C60.6309 29.8347 60.6124 29.7352 60.5951 29.6095C60.2205 29.9853 59.87 30.3277 59.5346 30.6553C58.0331 32.122 56.8364 33.2908 55.1545 35.8231C54.3894 32.6738 55.5796 29.6095 57.8013 26.8315L54.2007 28.3805C57.8013 24.7662 60.9848 23.1522 64.5905 23.5662C59.49 16.927 47.2487 14.5437 35.9425 21.6085C36.4569 13.3473 47.3539 9.06246 55.0695 12.1604V10.458C61.0201 13.9478 62.7203 17.1823 65.5256 22.8852H66.0357C64.6467 16.4686 62.3803 11.905 58.9799 9.18125L60.3732 9.27665C57.2797 4.67 53.2843 2.79741 47.1637 0.328987C55.6646 0.669459 59.2843 2.94088 66.1207 9.86219L66.5457 8.15983C67.2258 9.60684 68.1609 11.6796 68.1609 13.2669L68.7559 12.586C69.845 15.7272 69.3407 18.2535 67.5745 22.701C70.4171 16.9617 72.6753 13.7643 78.0219 10.3729V12.2455C87.4579 8.15983 96.8939 15.5651 97.2339 21.6936C86.432 15.4977 78.9973 15.4946 69.632 22.1846C77.7669 21.0126 82.9524 22.8001 84.9076 25.0132L83.3775 25.7792C87.5207 27.9779 89.3508 29.5005 90.2632 32.1631C90.0854 32.1008 89.9176 32.0405 89.7579 31.9831C88.7072 31.6057 88.0067 31.3541 87.1208 31.4784C87.8103 32.8615 88.5 34.0259 89.1446 35.1144C91.1995 38.5838 92.797 41.2808 92.4734 47.8248C91.6728 44.6822 90.6882 42.5475 87.8829 38.8874C88.2626 40.8506 88.3694 41.6023 88.053 42.5475C84.9926 35.5678 82.7824 32.7589 77.0868 27.3965C77.2882 27.9341 77.2134 28.4788 77.14 29.0139C77.1204 29.1565 77.1009 29.2984 77.0868 29.4393C75.0795 27.459 73.0064 25.6941 69.351 23.8215C69.0491 24.4408 68.926 24.5025 68.3309 24.6727C68.8024 25.1448 69.2754 25.6059 69.7415 26.0604C72.7215 28.9657 75.4211 31.5977 75.6417 35.0571C74.8624 34.0944 74.1965 33.6101 73.0914 32.844C74.6216 39.1427 73.8867 43.6308 72.8364 45.2712Z" fill="#2C3036"/>
<path fill-rule="evenodd" clip-rule="evenodd" d="M22.6099 57.9473C22.4722 54.8693 22.7822 52.8205 23.7012 51.3473C23.7012 51.3473 23.7012 53.4687 24.3331 54.2937C24.2756 50.5813 24.7191 48.2175 26.4583 44.7474C26.4583 44.7474 26.4951 44.738 26.5584 44.7208L26.5732 44.7515C30.9385 57.1812 31.398 67.1581 28.2963 86.4683H37.3716C36.3377 66.0853 34.4422 55.0598 27.6071 44.3939L27.6048 44.39C27.8005 44.3165 27.9851 44.2373 28.124 44.1582C28.4392 44.3203 28.7927 44.9275 29.1897 45.6096C29.6681 46.4315 30.2096 47.362 30.8236 47.7527C30.8017 47.5646 30.8195 47.4662 30.8459 47.3211C30.8569 47.2604 30.8694 47.1916 30.8811 47.1045C31.1341 47.3647 31.371 47.6017 31.5976 47.8285C32.6122 48.8439 33.4207 49.6531 34.5571 51.4063C35.0741 49.2259 34.2699 47.1045 32.7687 45.1813L35.2016 46.2537C32.7687 43.7515 30.6178 42.634 28.1814 42.9207C31.6278 38.3243 39.8989 36.6743 47.5382 41.5653C47.1907 35.8461 39.8278 32.8796 34.6146 35.0243V33.8458C30.5939 36.2618 29.4451 38.5011 27.5496 42.4492H27.205C28.1435 38.007 29.6748 34.8476 31.9724 32.9619L31.031 33.0279C33.1212 29.8387 35.8208 28.5423 39.9563 26.8334C34.2125 27.0691 31.7667 28.6416 27.1476 33.4333L26.8604 32.2547C26.4009 33.2565 25.769 34.6915 25.769 35.7904L25.367 35.319C24.6311 37.4937 24.9719 39.2427 26.1653 42.3217C24.2446 38.3483 22.7188 36.1348 19.1062 33.7869V35.0833C12.7305 32.2547 6.35483 37.3815 6.12508 41.6243C13.4237 37.3348 18.4472 37.3327 24.7751 41.9642C19.2785 41.1528 15.7747 42.3903 14.4537 43.9224L15.4875 44.4528C12.688 45.9749 11.4515 47.029 10.835 48.8724C10.9551 48.8292 11.0685 48.7875 11.1764 48.7478C11.8864 48.4865 12.3597 48.3123 12.9583 48.3984C12.4924 49.3559 12.0264 50.162 11.5908 50.9156C10.2024 53.3175 9.12302 55.1847 9.34163 59.7151C9.8826 57.5395 10.5478 56.0616 12.4433 53.5277C12.1868 54.8868 12.1146 55.4073 12.3284 56.0616C14.3962 51.2295 15.8896 49.2849 19.738 45.5724C19.6019 45.9446 19.6525 46.3217 19.7021 46.6921C19.7153 46.7909 19.7284 46.8891 19.738 46.9867C21.0943 45.6157 22.495 44.3939 24.9649 43.0975C25.1688 43.5262 25.2521 43.5689 25.6542 43.6867C25.3356 44.0135 25.016 44.3328 24.701 44.6474C22.6875 46.6588 20.8635 48.481 20.7144 50.8759C21.2409 50.2095 21.6909 49.8741 22.4376 49.3438C21.4037 53.7045 21.9002 56.8116 22.6099 57.9473Z" fill="#2C3036"/>
</svg>
