<svg width="210" height="219" viewBox="0 0 210 219" fill="none" xmlns="http://www.w3.org/2000/svg">
<mask id="path-1-outside-1_1_122" maskUnits="userSpaceOnUse" x="-25.1501" y="-16.1501" width="266.187" height="245.613" fill="black">
<rect fill="white" x="-25.1501" y="-16.1501" width="266.187" height="245.613"/>
<path fill-rule="evenodd" clip-rule="evenodd" d="M101.436 3.64319C101.854 6.167 119.469 15.0673 128.599 17.3673C132.828 18.4328 140.337 19.0353 145.286 18.7063C150.235 18.3772 155.023 18.0732 155.926 18.0308C159.825 17.8428 129.554 32.1909 124.066 33.1322C119.025 33.9961 117.615 33.5222 115.757 30.3397C111.398 22.8754 92.8966 22.0733 88.3351 29.1494C86.1475 32.5457 86.2115 33.0416 89.2662 36.3506C94.0123 41.4907 104.436 42.4842 112.009 38.5197C122.786 32.8775 122.888 36.724 112.177 44.838C106.626 49.0411 100.129 54.4273 97.7395 56.8063L93.3932 61.1298L76.4596 58.1442C53.5092 54.0959 33.1905 56.0629 17.3916 63.8608C6.46695 69.2519 3.28663 72.3675 7.11419 73.9335C8.2727 74.4061 17.2152 75.1569 26.9836 75.6009C47.2348 76.5187 57.6054 74.3999 71.2744 66.546C75.991 63.8372 80.2399 61.8988 80.7183 62.2401C81.1964 62.5798 79.355 64.1339 76.6274 65.6898C65.5905 71.9903 61.8299 74.9778 56.4539 81.7204C50.8218 88.7843 46.6253 98.3106 48.5429 99.6802C49.1038 100.08 53.4242 97.9948 58.1444 95.0478C66.9784 89.5282 80.0071 73.9218 79.3061 69.6946C78.9241 67.3908 87.6283 61.5067 89.4727 62.8241C89.9999 63.2002 87.6718 66.7271 84.3016 70.6627C76.3526 79.9435 70.8447 88.0854 62.2965 103.19C55.0737 115.953 49.8868 120.045 44.0184 117.613C36.3083 114.419 21.8688 122.325 22.996 129.122C24.1679 136.19 38.6222 134.379 44.4439 126.434C47.263 122.586 55.1499 117.669 54.2017 120.35C53.9715 120.997 52.8887 124.741 51.7951 128.671C49.8519 135.646 49.5415 135.908 38.8304 139.644C32.7947 141.75 24.0839 145.938 19.4739 148.951C11.0224 154.473 -1.63146 170.045 0.876832 171.835C3.17875 173.477 22.539 163.914 30.0572 157.422C33.9828 154.033 36.5515 152.356 35.7649 153.698C34.9802 155.04 34.0361 159.751 33.6687 164.169C32.7074 175.719 35.6847 176.936 40.8055 167.088L44.8566 159.298L44.6245 165.11C44.2236 175.142 43.1032 177.982 38.3963 180.909C34.5004 183.33 33.3792 183.432 30.8109 181.599C27.0963 178.949 23.0168 179.535 16.4064 183.671C5.29146 190.628 9.04359 200.278 21.3928 196.495C24.7866 195.455 28.8836 192.91 30.4974 190.841C32.8 187.889 43.2727 180.181 45.4765 179.816C45.71 179.777 46.9743 183.093 48.2865 187.185C51.5794 197.458 57.3943 205.881 65.7797 212.53C74.4891 219.436 76.7224 219.377 74.1411 212.309C69.0221 198.297 64.3309 191.193 56.1838 185.114C50.7831 181.084 47.5419 177.398 47.1109 174.799C46.2124 169.38 49.6105 146.011 53.1483 133.28L56.0021 123.008L58.9944 141.383C61.8252 158.774 62.3563 160.291 68.9285 169.741C72.7485 175.231 76.5451 179.613 77.3661 179.477C81.3553 178.815 77.8204 152.889 72.1566 141.276C70.0916 137.042 66.647 131.98 64.5018 130.026C58.2301 124.314 58.1869 117.58 64.3436 105.051C67.3429 98.9482 70.8917 92.6982 72.2314 91.1613C74.4816 88.581 74.6366 88.7483 74.2853 93.3826C72.9952 110.372 75.0867 117.169 81.291 116.14C88.4194 114.958 88.8551 102.044 81.9775 95.7808C76.6005 90.8856 76.3217 86.6906 80.8859 79.3716C85.3205 72.2589 106.084 51.6269 106.469 53.95C106.609 54.7897 104.46 59.3591 101.695 64.1032C91.0464 82.38 87.6829 100.262 91.062 120.64C92.4394 128.947 93.5857 132.239 95.0104 131.983C97.1548 131.598 108.052 105.352 110.81 93.9247C111.911 89.369 111.719 81.7103 110.242 71.2146C107.635 52.6894 108.711 49.9821 122.361 40.7094C130.77 34.9981 156.156 21.2456 159.233 20.7355C160.897 20.4595 156.434 25.5727 144.922 37.1302C133.089 49.0115 123.636 71.6958 124.081 87.1482C124.346 96.3931 123.364 97.0838 140.929 75.298C152.822 60.5497 158.833 46.5077 158.766 33.6436C158.747 30.1792 159.297 26.8515 159.987 26.2505C161.8 24.6697 162.058 28.2067 160.814 37.6442C160.214 42.1976 160.197 48.5101 160.778 51.6719C162.101 58.8808 169.572 73.8198 172.05 74.2106C174.312 74.5679 175.066 58.4762 173.268 48.2383C172.558 44.1973 170.455 38.1753 168.592 34.8549C161.534 22.2642 163.449 18.6127 180.066 12.992C186.871 10.6891 196.238 8.13616 200.878 7.31895C205.973 6.42138 209.198 5.12121 209.018 4.03912C208.701 2.127 191.191 6.10448 176.522 11.4203C161.689 16.7963 157.458 16.7061 147.799 10.8085C142.929 7.8351 134.808 4.28248 129.751 2.91381C119.652 0.178896 100.941 0.661821 101.436 3.64319ZM123.991 4.31762C133.551 5.57966 151.456 13.9369 148.236 15.6355C143.434 18.1672 128.257 15.5451 117.33 10.295C106.546 5.11354 106.204 4.78431 110.8 4.0222C113.469 3.57962 119.404 3.71222 123.991 4.31762ZM108.484 28.4198C113.154 30.6477 114.186 34.0314 110.803 36.0127C102.238 41.0292 85.8894 36.1864 90.3613 29.9566C92.0674 27.577 104.51 26.5218 108.484 28.4198ZM155.276 40.7746C152.611 54.369 148.994 61.7453 139.067 73.8433C127.331 88.145 126.381 88.8435 126.839 82.8522C127.58 73.1186 132.148 59.9279 137.736 51.3818C143.485 42.5911 153.339 31.6104 155.852 31.1937C156.593 31.0709 156.334 35.3831 155.276 40.7746ZM168.63 41.1996C170.767 46.096 171.517 50.726 171.421 58.4702L171.291 69.0493L168.411 64.578C163.839 57.4741 160.917 35.3028 164.478 34.7123C165.154 34.6002 167.023 37.5187 168.63 41.1996ZM51.9089 58.4309C63.5664 58.5764 72.735 59.9924 73.0169 61.6926C73.3998 64.0013 57.3446 70.6226 47.5767 72.1862C38.5739 73.6262 13.0891 72.9675 10.6542 71.2316C9.5002 70.4068 23.3377 63.599 30.7776 61.3327C39.5855 58.6482 42.0597 58.3072 51.9089 58.4309ZM108.379 90.0042C106.862 99.5794 97.326 125.029 95.1189 125.395C93.113 125.727 92.3854 121.12 92.3257 107.712C92.2705 95.4383 95.4057 82.4242 101.288 70.5136L105.365 62.2558L107.503 72.1521C108.791 78.1147 109.138 85.2098 108.379 90.0042ZM76.0585 70.0599C76.1378 70.5383 74.9397 73.4078 73.3942 76.437C70.5697 81.978 62.5971 89.491 54.6983 94.0571L50.4432 96.5162L52.8677 91.576C56.1833 84.8171 59.2543 81.1918 66.9454 74.9544C73.4846 69.6504 75.7856 68.4143 76.0585 70.0599ZM82.9229 103.328C83.7493 106.586 83.6926 110.503 82.7979 112.03C81.3543 114.497 80.8829 114.527 78.6008 112.296C75.48 109.247 74.6284 104.949 76.2189 100.276C77.9766 95.1146 81.2131 96.5872 82.9229 103.328ZM42.0344 119.893C45.1257 121.448 45.0874 121.786 41.3595 125.858C36.304 131.381 27.6813 132.44 26.8848 127.636C26.5142 125.401 27.9702 123.558 31.669 121.574C38.5003 117.912 38.1926 117.962 42.0344 119.893ZM65.6916 135.636C69.0862 140.167 71.1766 145.591 73.3368 155.476C77.5017 174.538 77.0399 177.32 71.1438 168.686C64.7586 159.337 60.3137 146.836 60.0196 137.401C59.8859 133.113 60.0559 129.559 60.3988 129.502C60.7401 129.446 63.1213 132.205 65.6916 135.636ZM46.9663 148.35L45.4859 154.245L44.6112 149.359C44.1309 146.672 44.4848 143.43 45.4001 142.156C47.8842 138.692 48.6404 141.686 46.9663 148.35ZM37.0468 144.031C37.2909 145.503 29.5995 154.682 25.5139 157.794C21.3386 160.974 8.44828 167.759 5.62672 168.259C3.33239 168.668 9.95371 159.51 15.3563 154.804C22.0308 148.989 36.6637 141.721 37.0468 144.031ZM42.5178 152.675C41.2788 161.752 36.6013 171.271 35.7886 166.369C35.2481 163.11 39.7536 149.422 41.4616 149.139C42.3519 148.991 42.81 150.527 42.5178 152.675ZM29.8339 184.326C32.3419 187.192 25.4295 193.257 19.0834 193.76C11.8278 194.334 10.2937 191.537 15.6047 187.415C20.5438 183.584 27.8035 182.007 29.8339 184.326ZM58.727 190.655C63.5005 195.562 70.7954 207.904 71.5254 212.306C72.0195 215.286 64.9592 209.546 59.5839 202.597C53.5855 194.842 49.4858 185.749 51.8153 185.363C52.6492 185.225 55.76 187.606 58.727 190.655Z"/>
</mask>
<path fill-rule="evenodd" clip-rule="evenodd" d="M101.436 3.64319C101.854 6.167 119.469 15.0673 128.599 17.3673C132.828 18.4328 140.337 19.0353 145.286 18.7063C150.235 18.3772 155.023 18.0732 155.926 18.0308C159.825 17.8428 129.554 32.1909 124.066 33.1322C119.025 33.9961 117.615 33.5222 115.757 30.3397C111.398 22.8754 92.8966 22.0733 88.3351 29.1494C86.1475 32.5457 86.2115 33.0416 89.2662 36.3506C94.0123 41.4907 104.436 42.4842 112.009 38.5197C122.786 32.8775 122.888 36.724 112.177 44.838C106.626 49.0411 100.129 54.4273 97.7395 56.8063L93.3932 61.1298L76.4596 58.1442C53.5092 54.0959 33.1905 56.0629 17.3916 63.8608C6.46695 69.2519 3.28663 72.3675 7.11419 73.9335C8.2727 74.4061 17.2152 75.1569 26.9836 75.6009C47.2348 76.5187 57.6054 74.3999 71.2744 66.546C75.991 63.8372 80.2399 61.8988 80.7183 62.2401C81.1964 62.5798 79.355 64.1339 76.6274 65.6898C65.5905 71.9903 61.8299 74.9778 56.4539 81.7204C50.8218 88.7843 46.6253 98.3106 48.5429 99.6802C49.1038 100.08 53.4242 97.9948 58.1444 95.0478C66.9784 89.5282 80.0071 73.9218 79.3061 69.6946C78.9241 67.3908 87.6283 61.5067 89.4727 62.8241C89.9999 63.2002 87.6718 66.7271 84.3016 70.6627C76.3526 79.9435 70.8447 88.0854 62.2965 103.19C55.0737 115.953 49.8868 120.045 44.0184 117.613C36.3083 114.419 21.8688 122.325 22.996 129.122C24.1679 136.19 38.6222 134.379 44.4439 126.434C47.263 122.586 55.1499 117.669 54.2017 120.35C53.9715 120.997 52.8887 124.741 51.7951 128.671C49.8519 135.646 49.5415 135.908 38.8304 139.644C32.7947 141.75 24.0839 145.938 19.4739 148.951C11.0224 154.473 -1.63146 170.045 0.876832 171.835C3.17875 173.477 22.539 163.914 30.0572 157.422C33.9828 154.033 36.5515 152.356 35.7649 153.698C34.9802 155.04 34.0361 159.751 33.6687 164.169C32.7074 175.719 35.6847 176.936 40.8055 167.088L44.8566 159.298L44.6245 165.11C44.2236 175.142 43.1032 177.982 38.3963 180.909C34.5004 183.33 33.3792 183.432 30.8109 181.599C27.0963 178.949 23.0168 179.535 16.4064 183.671C5.29146 190.628 9.04359 200.278 21.3928 196.495C24.7866 195.455 28.8836 192.91 30.4974 190.841C32.8 187.889 43.2727 180.181 45.4765 179.816C45.71 179.777 46.9743 183.093 48.2865 187.185C51.5794 197.458 57.3943 205.881 65.7797 212.53C74.4891 219.436 76.7224 219.377 74.1411 212.309C69.0221 198.297 64.3309 191.193 56.1838 185.114C50.7831 181.084 47.5419 177.398 47.1109 174.799C46.2124 169.38 49.6105 146.011 53.1483 133.28L56.0021 123.008L58.9944 141.383C61.8252 158.774 62.3563 160.291 68.9285 169.741C72.7485 175.231 76.5451 179.613 77.3661 179.477C81.3553 178.815 77.8204 152.889 72.1566 141.276C70.0916 137.042 66.647 131.98 64.5018 130.026C58.2301 124.314 58.1869 117.58 64.3436 105.051C67.3429 98.9482 70.8917 92.6982 72.2314 91.1613C74.4816 88.581 74.6366 88.7483 74.2853 93.3826C72.9952 110.372 75.0867 117.169 81.291 116.14C88.4194 114.958 88.8551 102.044 81.9775 95.7808C76.6005 90.8856 76.3217 86.6906 80.8859 79.3716C85.3205 72.2589 106.084 51.6269 106.469 53.95C106.609 54.7897 104.46 59.3591 101.695 64.1032C91.0464 82.38 87.6829 100.262 91.062 120.64C92.4394 128.947 93.5857 132.239 95.0104 131.983C97.1548 131.598 108.052 105.352 110.81 93.9247C111.911 89.369 111.719 81.7103 110.242 71.2146C107.635 52.6894 108.711 49.9821 122.361 40.7094C130.77 34.9981 156.156 21.2456 159.233 20.7355C160.897 20.4595 156.434 25.5727 144.922 37.1302C133.089 49.0115 123.636 71.6958 124.081 87.1482C124.346 96.3931 123.364 97.0838 140.929 75.298C152.822 60.5497 158.833 46.5077 158.766 33.6436C158.747 30.1792 159.297 26.8515 159.987 26.2505C161.8 24.6697 162.058 28.2067 160.814 37.6442C160.214 42.1976 160.197 48.5101 160.778 51.6719C162.101 58.8808 169.572 73.8198 172.05 74.2106C174.312 74.5679 175.066 58.4762 173.268 48.2383C172.558 44.1973 170.455 38.1753 168.592 34.8549C161.534 22.2642 163.449 18.6127 180.066 12.992C186.871 10.6891 196.238 8.13616 200.878 7.31895C205.973 6.42138 209.198 5.12121 209.018 4.03912C208.701 2.127 191.191 6.10448 176.522 11.4203C161.689 16.7963 157.458 16.7061 147.799 10.8085C142.929 7.8351 134.808 4.28248 129.751 2.91381C119.652 0.178896 100.941 0.661821 101.436 3.64319ZM123.991 4.31762C133.551 5.57966 151.456 13.9369 148.236 15.6355C143.434 18.1672 128.257 15.5451 117.33 10.295C106.546 5.11354 106.204 4.78431 110.8 4.0222C113.469 3.57962 119.404 3.71222 123.991 4.31762ZM108.484 28.4198C113.154 30.6477 114.186 34.0314 110.803 36.0127C102.238 41.0292 85.8894 36.1864 90.3613 29.9566C92.0674 27.577 104.51 26.5218 108.484 28.4198ZM155.276 40.7746C152.611 54.369 148.994 61.7453 139.067 73.8433C127.331 88.145 126.381 88.8435 126.839 82.8522C127.58 73.1186 132.148 59.9279 137.736 51.3818C143.485 42.5911 153.339 31.6104 155.852 31.1937C156.593 31.0709 156.334 35.3831 155.276 40.7746ZM168.63 41.1996C170.767 46.096 171.517 50.726 171.421 58.4702L171.291 69.0493L168.411 64.578C163.839 57.4741 160.917 35.3028 164.478 34.7123C165.154 34.6002 167.023 37.5187 168.63 41.1996ZM51.9089 58.4309C63.5664 58.5764 72.735 59.9924 73.0169 61.6926C73.3998 64.0013 57.3446 70.6226 47.5767 72.1862C38.5739 73.6262 13.0891 72.9675 10.6542 71.2316C9.5002 70.4068 23.3377 63.599 30.7776 61.3327C39.5855 58.6482 42.0597 58.3072 51.9089 58.4309ZM108.379 90.0042C106.862 99.5794 97.326 125.029 95.1189 125.395C93.113 125.727 92.3854 121.12 92.3257 107.712C92.2705 95.4383 95.4057 82.4242 101.288 70.5136L105.365 62.2558L107.503 72.1521C108.791 78.1147 109.138 85.2098 108.379 90.0042ZM76.0585 70.0599C76.1378 70.5383 74.9397 73.4078 73.3942 76.437C70.5697 81.978 62.5971 89.491 54.6983 94.0571L50.4432 96.5162L52.8677 91.576C56.1833 84.8171 59.2543 81.1918 66.9454 74.9544C73.4846 69.6504 75.7856 68.4143 76.0585 70.0599ZM82.9229 103.328C83.7493 106.586 83.6926 110.503 82.7979 112.03C81.3543 114.497 80.8829 114.527 78.6008 112.296C75.48 109.247 74.6284 104.949 76.2189 100.276C77.9766 95.1146 81.2131 96.5872 82.9229 103.328ZM42.0344 119.893C45.1257 121.448 45.0874 121.786 41.3595 125.858C36.304 131.381 27.6813 132.44 26.8848 127.636C26.5142 125.401 27.9702 123.558 31.669 121.574C38.5003 117.912 38.1926 117.962 42.0344 119.893ZM65.6916 135.636C69.0862 140.167 71.1766 145.591 73.3368 155.476C77.5017 174.538 77.0399 177.32 71.1438 168.686C64.7586 159.337 60.3137 146.836 60.0196 137.401C59.8859 133.113 60.0559 129.559 60.3988 129.502C60.7401 129.446 63.1213 132.205 65.6916 135.636ZM46.9663 148.35L45.4859 154.245L44.6112 149.359C44.1309 146.672 44.4848 143.43 45.4001 142.156C47.8842 138.692 48.6404 141.686 46.9663 148.35ZM37.0468 144.031C37.2909 145.503 29.5995 154.682 25.5139 157.794C21.3386 160.974 8.44828 167.759 5.62672 168.259C3.33239 168.668 9.95371 159.51 15.3563 154.804C22.0308 148.989 36.6637 141.721 37.0468 144.031ZM42.5178 152.675C41.2788 161.752 36.6013 171.271 35.7886 166.369C35.2481 163.11 39.7536 149.422 41.4616 149.139C42.3519 148.991 42.81 150.527 42.5178 152.675ZM29.8339 184.326C32.3419 187.192 25.4295 193.257 19.0834 193.76C11.8278 194.334 10.2937 191.537 15.6047 187.415C20.5438 183.584 27.8035 182.007 29.8339 184.326ZM58.727 190.655C63.5005 195.562 70.7954 207.904 71.5254 212.306C72.0195 215.286 64.9592 209.546 59.5839 202.597C53.5855 194.842 49.4858 185.749 51.8153 185.363C52.6492 185.225 55.76 187.606 58.727 190.655Z" fill="white"/>
<path fill-rule="evenodd" clip-rule="evenodd" d="M101.436 3.64319C101.854 6.167 119.469 15.0673 128.599 17.3673C132.828 18.4328 140.337 19.0353 145.286 18.7063C150.235 18.3772 155.023 18.0732 155.926 18.0308C159.825 17.8428 129.554 32.1909 124.066 33.1322C119.025 33.9961 117.615 33.5222 115.757 30.3397C111.398 22.8754 92.8966 22.0733 88.3351 29.1494C86.1475 32.5457 86.2115 33.0416 89.2662 36.3506C94.0123 41.4907 104.436 42.4842 112.009 38.5197C122.786 32.8775 122.888 36.724 112.177 44.838C106.626 49.0411 100.129 54.4273 97.7395 56.8063L93.3932 61.1298L76.4596 58.1442C53.5092 54.0959 33.1905 56.0629 17.3916 63.8608C6.46695 69.2519 3.28663 72.3675 7.11419 73.9335C8.2727 74.4061 17.2152 75.1569 26.9836 75.6009C47.2348 76.5187 57.6054 74.3999 71.2744 66.546C75.991 63.8372 80.2399 61.8988 80.7183 62.2401C81.1964 62.5798 79.355 64.1339 76.6274 65.6898C65.5905 71.9903 61.8299 74.9778 56.4539 81.7204C50.8218 88.7843 46.6253 98.3106 48.5429 99.6802C49.1038 100.08 53.4242 97.9948 58.1444 95.0478C66.9784 89.5282 80.0071 73.9218 79.3061 69.6946C78.9241 67.3908 87.6283 61.5067 89.4727 62.8241C89.9999 63.2002 87.6718 66.7271 84.3016 70.6627C76.3526 79.9435 70.8447 88.0854 62.2965 103.19C55.0737 115.953 49.8868 120.045 44.0184 117.613C36.3083 114.419 21.8688 122.325 22.996 129.122C24.1679 136.19 38.6222 134.379 44.4439 126.434C47.263 122.586 55.1499 117.669 54.2017 120.35C53.9715 120.997 52.8887 124.741 51.7951 128.671C49.8519 135.646 49.5415 135.908 38.8304 139.644C32.7947 141.75 24.0839 145.938 19.4739 148.951C11.0224 154.473 -1.63146 170.045 0.876832 171.835C3.17875 173.477 22.539 163.914 30.0572 157.422C33.9828 154.033 36.5515 152.356 35.7649 153.698C34.9802 155.04 34.0361 159.751 33.6687 164.169C32.7074 175.719 35.6847 176.936 40.8055 167.088L44.8566 159.298L44.6245 165.11C44.2236 175.142 43.1032 177.982 38.3963 180.909C34.5004 183.33 33.3792 183.432 30.8109 181.599C27.0963 178.949 23.0168 179.535 16.4064 183.671C5.29146 190.628 9.04359 200.278 21.3928 196.495C24.7866 195.455 28.8836 192.91 30.4974 190.841C32.8 187.889 43.2727 180.181 45.4765 179.816C45.71 179.777 46.9743 183.093 48.2865 187.185C51.5794 197.458 57.3943 205.881 65.7797 212.53C74.4891 219.436 76.7224 219.377 74.1411 212.309C69.0221 198.297 64.3309 191.193 56.1838 185.114C50.7831 181.084 47.5419 177.398 47.1109 174.799C46.2124 169.38 49.6105 146.011 53.1483 133.28L56.0021 123.008L58.9944 141.383C61.8252 158.774 62.3563 160.291 68.9285 169.741C72.7485 175.231 76.5451 179.613 77.3661 179.477C81.3553 178.815 77.8204 152.889 72.1566 141.276C70.0916 137.042 66.647 131.98 64.5018 130.026C58.2301 124.314 58.1869 117.58 64.3436 105.051C67.3429 98.9482 70.8917 92.6982 72.2314 91.1613C74.4816 88.581 74.6366 88.7483 74.2853 93.3826C72.9952 110.372 75.0867 117.169 81.291 116.14C88.4194 114.958 88.8551 102.044 81.9775 95.7808C76.6005 90.8856 76.3217 86.6906 80.8859 79.3716C85.3205 72.2589 106.084 51.6269 106.469 53.95C106.609 54.7897 104.46 59.3591 101.695 64.1032C91.0464 82.38 87.6829 100.262 91.062 120.64C92.4394 128.947 93.5857 132.239 95.0104 131.983C97.1548 131.598 108.052 105.352 110.81 93.9247C111.911 89.369 111.719 81.7103 110.242 71.2146C107.635 52.6894 108.711 49.9821 122.361 40.7094C130.77 34.9981 156.156 21.2456 159.233 20.7355C160.897 20.4595 156.434 25.5727 144.922 37.1302C133.089 49.0115 123.636 71.6958 124.081 87.1482C124.346 96.3931 123.364 97.0838 140.929 75.298C152.822 60.5497 158.833 46.5077 158.766 33.6436C158.747 30.1792 159.297 26.8515 159.987 26.2505C161.8 24.6697 162.058 28.2067 160.814 37.6442C160.214 42.1976 160.197 48.5101 160.778 51.6719C162.101 58.8808 169.572 73.8198 172.05 74.2106C174.312 74.5679 175.066 58.4762 173.268 48.2383C172.558 44.1973 170.455 38.1753 168.592 34.8549C161.534 22.2642 163.449 18.6127 180.066 12.992C186.871 10.6891 196.238 8.13616 200.878 7.31895C205.973 6.42138 209.198 5.12121 209.018 4.03912C208.701 2.127 191.191 6.10448 176.522 11.4203C161.689 16.7963 157.458 16.7061 147.799 10.8085C142.929 7.8351 134.808 4.28248 129.751 2.91381C119.652 0.178896 100.941 0.661821 101.436 3.64319ZM123.991 4.31762C133.551 5.57966 151.456 13.9369 148.236 15.6355C143.434 18.1672 128.257 15.5451 117.33 10.295C106.546 5.11354 106.204 4.78431 110.8 4.0222C113.469 3.57962 119.404 3.71222 123.991 4.31762ZM108.484 28.4198C113.154 30.6477 114.186 34.0314 110.803 36.0127C102.238 41.0292 85.8894 36.1864 90.3613 29.9566C92.0674 27.577 104.51 26.5218 108.484 28.4198ZM155.276 40.7746C152.611 54.369 148.994 61.7453 139.067 73.8433C127.331 88.145 126.381 88.8435 126.839 82.8522C127.58 73.1186 132.148 59.9279 137.736 51.3818C143.485 42.5911 153.339 31.6104 155.852 31.1937C156.593 31.0709 156.334 35.3831 155.276 40.7746ZM168.63 41.1996C170.767 46.096 171.517 50.726 171.421 58.4702L171.291 69.0493L168.411 64.578C163.839 57.4741 160.917 35.3028 164.478 34.7123C165.154 34.6002 167.023 37.5187 168.63 41.1996ZM51.9089 58.4309C63.5664 58.5764 72.735 59.9924 73.0169 61.6926C73.3998 64.0013 57.3446 70.6226 47.5767 72.1862C38.5739 73.6262 13.0891 72.9675 10.6542 71.2316C9.5002 70.4068 23.3377 63.599 30.7776 61.3327C39.5855 58.6482 42.0597 58.3072 51.9089 58.4309ZM108.379 90.0042C106.862 99.5794 97.326 125.029 95.1189 125.395C93.113 125.727 92.3854 121.12 92.3257 107.712C92.2705 95.4383 95.4057 82.4242 101.288 70.5136L105.365 62.2558L107.503 72.1521C108.791 78.1147 109.138 85.2098 108.379 90.0042ZM76.0585 70.0599C76.1378 70.5383 74.9397 73.4078 73.3942 76.437C70.5697 81.978 62.5971 89.491 54.6983 94.0571L50.4432 96.5162L52.8677 91.576C56.1833 84.8171 59.2543 81.1918 66.9454 74.9544C73.4846 69.6504 75.7856 68.4143 76.0585 70.0599ZM82.9229 103.328C83.7493 106.586 83.6926 110.503 82.7979 112.03C81.3543 114.497 80.8829 114.527 78.6008 112.296C75.48 109.247 74.6284 104.949 76.2189 100.276C77.9766 95.1146 81.2131 96.5872 82.9229 103.328ZM42.0344 119.893C45.1257 121.448 45.0874 121.786 41.3595 125.858C36.304 131.381 27.6813 132.44 26.8848 127.636C26.5142 125.401 27.9702 123.558 31.669 121.574C38.5003 117.912 38.1926 117.962 42.0344 119.893ZM65.6916 135.636C69.0862 140.167 71.1766 145.591 73.3368 155.476C77.5017 174.538 77.0399 177.32 71.1438 168.686C64.7586 159.337 60.3137 146.836 60.0196 137.401C59.8859 133.113 60.0559 129.559 60.3988 129.502C60.7401 129.446 63.1213 132.205 65.6916 135.636ZM46.9663 148.35L45.4859 154.245L44.6112 149.359C44.1309 146.672 44.4848 143.43 45.4001 142.156C47.8842 138.692 48.6404 141.686 46.9663 148.35ZM37.0468 144.031C37.2909 145.503 29.5995 154.682 25.5139 157.794C21.3386 160.974 8.44828 167.759 5.62672 168.259C3.33239 168.668 9.95371 159.51 15.3563 154.804C22.0308 148.989 36.6637 141.721 37.0468 144.031ZM42.5178 152.675C41.2788 161.752 36.6013 171.271 35.7886 166.369C35.2481 163.11 39.7536 149.422 41.4616 149.139C42.3519 148.991 42.81 150.527 42.5178 152.675ZM29.8339 184.326C32.3419 187.192 25.4295 193.257 19.0834 193.76C11.8278 194.334 10.2937 191.537 15.6047 187.415C20.5438 183.584 27.8035 182.007 29.8339 184.326ZM58.727 190.655C63.5005 195.562 70.7954 207.904 71.5254 212.306C72.0195 215.286 64.9592 209.546 59.5839 202.597C53.5855 194.842 49.4858 185.749 51.8153 185.363C52.6492 185.225 55.76 187.606 58.727 190.655Z" stroke="#FEFEFE" mask="url(#path-1-outside-1_1_122)"/>
</svg>
