<svg width="94" height="56" viewBox="0 0 94 56" fill="none" xmlns="http://www.w3.org/2000/svg">
<path d="M0.5 52.9797V56.0005H22.1118C27.2439 56.0005 31.505 54.9462 34.8951 52.8353C36.4844 51.8461 39.771 49.0305 41.0083 46.8067L36.8202 37.1666C36.586 39.0278 35.6105 41.8129 35.4255 42.294C34.2013 45.5547 32.3055 48.088 29.81 49.8145C27.3617 51.4932 24.2541 52.3326 20.4873 52.3326H14.3428V8.23707H20.5579C24.2776 8.23707 27.3617 9.10032 29.81 10.8267C32.6251 12.8116 34.7538 18.6943 37.7994 25.8608H45.4537C44.1242 22.4882 42.6379 19.1069 41.2831 15.7657C39.4939 11.9293 37.9792 9.62782 34.542 7.66169C31.1048 5.64756 26.9614 4.64044 22.1118 4.64044H0.5V7.66169H1.41818C2.45407 7.66169 3.39569 7.78156 4.24324 8.02132C5.13788 8.21319 5.84406 8.66869 6.36201 9.38806C6.92704 10.0594 7.20956 11.1144 7.20956 12.5531V47.8003C7.20956 49.2868 6.95058 50.4139 6.43264 51.1816C5.91469 51.9004 5.2085 52.3803 4.31387 52.6203C3.46632 52.8592 2.50116 52.9797 1.41818 52.9797H0.5Z" fill="#2C3036"/>
<path d="M48.5697 33.4617H41.1029L50.8905 56.0005H54.8077L80.0224 10.0354V48.4474C79.9756 49.7428 79.7401 50.7255 79.3172 51.3966C78.8934 52.0209 78.3054 52.452 77.5527 52.692C76.847 52.8842 75.9767 52.9797 74.9417 52.9797H74.7299V56.0005H93.5006V52.9797H92.5834C91.5479 52.9797 90.5838 52.8592 89.69 52.6203C88.7962 52.3803 88.091 51.9004 87.5733 51.1816C87.0555 50.4139 86.7967 49.2868 86.7967 47.8003V12.8408C86.7967 11.3063 87.0555 10.1793 87.5733 9.45995C88.091 8.74068 88.7962 8.26107 89.69 8.02132C90.5838 7.78156 91.5479 7.66169 92.5834 7.66169H93.5006V4.64044H76.7697L53.7811 46.1118L48.5697 33.4617Z" fill="#2C3036"/>
<path fill-rule="evenodd" clip-rule="evenodd" d="M55.8893 6.31419C56.2085 5.67061 56.5472 5.04049 56.8941 4.47998C58.5495 1.80544 59.8916 0.953492 60.5404 0.604828C61.8176 -0.081641 62.7945 -0.00758939 63.1034 0.014236C63.6386 0.0519147 64.2429 0.208282 64.7085 0.433051C65.6805 0.902244 67.4729 1.96148 68.2756 4.23588C68.5436 4.99543 69.4789 7.83056 66.7527 12.4484C65.0172 15.3885 62.6788 17.5626 61.842 18.351C61.6948 18.4889 60.6969 19.4487 58.9428 20.7984C56.9723 22.3143 55.0929 23.4533 54.9959 23.4957C54.5746 23.6792 54.083 23.4262 53.0571 22.3697C52.8446 22.1514 52.04 21.3229 50.6037 19.4444C50.1701 18.8776 48.5965 16.7884 47.1803 14.353C45.2801 11.0854 43.6996 7.38949 44.4775 4.71702C44.9561 3.07251 46.2491 2.42492 46.3906 2.34674C48.3288 1.27512 50.3405 2.08136 50.6413 2.19428C51.3491 2.45988 52.9207 3.15471 54.9159 5.21825C55.4342 5.75433 55.7863 6.18541 55.8893 6.31419ZM55.189 7.80722C55.038 7.78876 54.9326 7.73425 54.9051 7.72014C54.7487 7.63935 54.6204 7.48668 54.6382 7.50763C54.847 7.7564 53.5144 6.16912 51.4701 4.99218C49.1614 3.663 47.9363 4.20179 47.4495 4.44806C47.0326 4.65882 46.3161 5.12758 46.4338 7.01043C46.6239 10.049 48.9755 15.0294 51.9964 19.3174C52.5139 20.0514 53.9903 22.0005 54.7163 22.4685C56.0192 21.6856 57.2321 20.8473 58.7799 19.502C59.295 19.0535 59.9285 18.4259 60.0259 18.3303C60.7105 17.6517 61.4598 16.8655 62.3864 15.6757C64.9909 12.3306 66.5996 8.69609 66.0818 6.06303C65.9879 5.58548 65.7727 4.61419 64.6687 3.71815C64.1522 3.29913 63.5577 3.02061 63.4546 2.97229C63.3218 2.91018 62.9688 2.70821 62.3251 2.74872C62.2859 2.75121 61.7023 2.74589 60.7063 3.35353C59.4977 4.09071 58.4217 5.32053 57.6716 6.21168C56.132 8.04089 54.7129 10.2961 54.6744 10.3244C54.6207 10.3639 54.5767 10.4236 54.5131 10.4427C54.5112 10.4433 54.3291 10.428 54.3285 10.4272C54.2901 10.3774 54.2317 10.3379 54.2141 10.2771C54.1758 10.1455 54.1992 10.1428 54.251 10.0163C54.4969 9.41622 54.8183 8.63745 55.189 7.80722Z" fill="#2C3036"/>
</svg>
