<svg width="100" height="100" viewBox="0 0 100 100" fill="none" xmlns="http://www.w3.org/2000/svg">
<g opacity="0.22" clip-path="url(#clip0_171_131)">
<path d="M25 64.001V65.6546H36.8517C39.6662 65.6546 42.0029 65.0775 43.862 63.922C44.7336 63.3805 46.5359 61.8392 47.2144 60.6219L44.9177 55.3449C44.7892 56.3637 44.2543 57.8883 44.1529 58.1516C43.4815 59.9366 42.4419 61.3233 41.0734 62.2684C39.7307 63.1873 38.0265 63.6468 35.9609 63.6468H32.5913V39.5088H35.9996C38.0394 39.5088 39.7307 39.9814 41.0734 40.9264C42.6171 42.013 43.7845 45.2331 45.4547 49.1561H49.6522C48.9231 47.3099 48.1081 45.459 47.3651 43.63C46.3839 41.5299 45.5532 40.2701 43.6683 39.1939C41.7834 38.0913 39.5112 37.54 36.8517 37.54H25V39.1939H25.5035C26.0716 39.1939 26.588 39.2595 27.0528 39.3907C27.5434 39.4958 27.9306 39.7451 28.2147 40.1389C28.5245 40.5064 28.6795 41.0839 28.6795 41.8714V61.1658C28.6795 61.9795 28.5374 62.5965 28.2534 63.0167C27.9694 63.4102 27.5821 63.6729 27.0915 63.8043C26.6267 63.935 26.0974 64.001 25.5035 64.001H25Z" fill="black"/>
<path d="M51.3603 53.3168H47.2656L52.6331 65.6546H54.7812L68.6088 40.4933V61.52C68.5831 62.2291 68.454 62.7671 68.222 63.1344C67.9896 63.4762 67.6672 63.7122 67.2544 63.8435C66.8674 63.9487 66.3901 64.001 65.8225 64.001H65.7064V65.6546H76.0001V64.001H75.4971C74.9292 64.001 74.4005 63.935 73.9104 63.8043C73.4202 63.6729 73.0335 63.4102 72.7496 63.0167C72.4657 62.5965 72.3237 61.9795 72.3237 61.1658V42.0289C72.3237 41.1889 72.4657 40.572 72.7496 40.1782C73.0335 39.7845 73.4202 39.522 73.9104 39.3907C74.4005 39.2595 74.9292 39.1939 75.4971 39.1939H76.0001V37.54H66.825L54.2182 60.2415L51.3603 53.3168Z" fill="black"/>
<path fill-rule="evenodd" clip-rule="evenodd" d="M55.3752 38.456C55.5502 38.1037 55.736 37.7588 55.9262 37.4519C56.834 35.9879 57.57 35.5215 57.9258 35.3307C58.6262 34.9549 59.1619 34.9954 59.3313 35.0074C59.6248 35.028 59.9562 35.1136 60.2115 35.2367C60.7446 35.4935 61.7275 36.0733 62.1677 37.3183C62.3147 37.7341 62.8276 39.2861 61.3326 41.8139C60.3808 43.4233 59.0985 44.6134 58.6396 45.0449C58.5588 45.1204 58.0116 45.6459 57.0497 46.3847C55.9691 47.2145 54.9384 47.838 54.8852 47.8612C54.6542 47.9616 54.3846 47.8231 53.822 47.2448C53.7055 47.1253 53.2642 46.6718 52.4766 45.6435C52.2388 45.3332 51.3758 44.1896 50.5992 42.8564C49.5572 41.0677 48.6905 39.0446 49.117 37.5817C49.3795 36.6815 50.0886 36.327 50.1662 36.2842C51.229 35.6976 52.3322 36.1389 52.4972 36.2008C52.8853 36.3461 53.7472 36.7265 54.8414 37.8561C55.1256 38.1495 55.3187 38.3855 55.3752 38.456ZM54.9911 39.2733C54.9083 39.2632 54.8505 39.2333 54.8355 39.2256C54.7497 39.1814 54.6793 39.0978 54.689 39.1093C54.8036 39.2455 54.0728 38.3766 52.9517 37.7323C51.6856 37.0047 51.0138 37.2997 50.7468 37.4345C50.5182 37.5498 50.1253 37.8064 50.1899 38.8371C50.2941 40.5005 51.5837 43.2267 53.2403 45.5739C53.5241 45.9758 54.3338 47.0427 54.7319 47.2989C55.4464 46.8703 56.1116 46.4114 56.9603 45.675C57.2428 45.4295 57.5902 45.0859 57.6436 45.0336C58.019 44.6621 58.43 44.2318 58.9381 43.5805C60.3664 41.7494 61.2486 39.7599 60.9646 38.3185C60.9132 38.0571 60.7951 37.5254 60.1897 37.0349C59.9064 36.8055 59.5804 36.6531 59.5239 36.6266C59.4511 36.5926 59.2575 36.4821 58.9045 36.5042C58.883 36.5056 58.563 36.5027 58.0167 36.8353C57.354 37.2389 56.7639 37.9121 56.3526 38.3999C55.5083 39.4012 54.73 40.6357 54.7089 40.6512C54.6795 40.6728 54.6553 40.7055 54.6205 40.7159C54.6194 40.7163 54.5195 40.7079 54.5192 40.7075C54.4982 40.6802 54.4661 40.6586 54.4565 40.6253C54.4355 40.5532 54.4483 40.5518 54.4767 40.4825C54.6116 40.154 54.7878 39.7278 54.9911 39.2733Z" fill="black"/>
<path d="M-13.3467 25L-15.0003 25L-15.0003 36.8517C-15.0003 39.6662 -14.4232 42.0029 -13.2677 43.862C-12.7262 44.7336 -11.1849 46.5359 -9.96762 47.2144L-4.69061 44.9177C-5.7094 44.7892 -7.23401 44.2543 -7.49732 44.1529C-9.28228 43.4815 -10.669 42.4419 -11.6141 41.0734C-12.533 39.7307 -12.9925 38.0265 -12.9925 35.9609L-12.9925 32.5913L11.1455 32.5913L11.1455 35.9996C11.1455 38.0394 10.6729 39.7307 9.72789 41.0734C8.64135 42.6171 5.42117 43.7845 1.49819 45.4547L1.49819 49.6522C3.34437 48.9231 5.1953 48.1081 7.0243 47.3651C9.12435 46.3839 10.3842 45.5532 11.4604 43.6683C12.563 41.7834 13.1143 39.5112 13.1143 36.8517L13.1143 25L11.4604 25L11.4604 25.5035C11.4604 26.0716 11.3948 26.588 11.2636 27.0528C11.1585 27.5434 10.9092 27.9306 10.5154 28.2147C10.1479 28.5245 9.57038 28.6795 8.78287 28.6795L-10.5115 28.6795C-11.3252 28.6795 -11.9422 28.5374 -12.3624 28.2534C-12.7559 27.9694 -13.0186 27.5821 -13.15 27.0915C-13.2807 26.6267 -13.3467 26.0974 -13.3467 25.5035L-13.3467 25Z" fill="black"/>
<path d="M-2.66255 51.3603L-2.66255 47.2656L-15.0003 52.6331L-15.0003 54.7812L10.161 68.6088L-10.8657 68.6088C-11.5749 68.5831 -12.1128 68.454 -12.4801 68.222C-12.8219 67.9896 -13.0579 67.6672 -13.1892 67.2544C-13.2944 66.8674 -13.3467 66.3901 -13.3467 65.8225L-13.3467 65.7064L-15.0003 65.7064L-15.0003 76.0001L-13.3467 76.0001L-13.3467 75.4971C-13.3467 74.9292 -13.2807 74.4005 -13.15 73.9104C-13.0186 73.4202 -12.7559 73.0335 -12.3624 72.7496C-11.9422 72.4657 -11.3252 72.3237 -10.5115 72.3237L8.62536 72.3237C9.46535 72.3237 10.0823 72.4657 10.4761 72.7496C10.8698 73.0335 11.1323 73.4202 11.2636 73.9104C11.3948 74.4005 11.4604 74.9292 11.4604 75.4971L11.4604 76.0001L13.1143 76.0001L13.1143 66.825L-9.5872 54.2182L-2.66255 51.3603Z" fill="black"/>
<path fill-rule="evenodd" clip-rule="evenodd" d="M12.1983 55.3747C12.5506 55.5497 12.8955 55.7355 13.2024 55.9257C14.6664 56.8335 15.1328 57.5695 15.3236 57.9253C15.6994 58.6257 15.6589 59.1614 15.6469 59.3308C15.6263 59.6244 15.5407 59.9557 15.4176 60.211C15.1608 60.7441 14.581 61.727 13.336 62.1672C12.9202 62.3142 11.3682 62.8271 8.84041 61.3321C7.23104 60.3803 6.04089 59.098 5.60936 58.6391C5.53387 58.5583 5.00843 58.0111 4.2696 57.0492C3.43983 55.9686 2.81632 54.938 2.79314 54.8848C2.69268 54.6537 2.83118 54.3841 3.40952 53.8215C3.52899 53.705 3.98251 53.2637 5.01081 52.4761C5.32108 52.2383 6.46469 51.3753 7.79785 50.5988C9.58655 49.5567 11.6097 48.69 13.0726 49.1165C13.9728 49.379 14.3273 50.0881 14.3701 50.1657C14.9567 51.2285 14.5154 52.3317 14.4535 52.4967C14.3082 52.8849 13.9278 53.7467 12.7982 54.8409C12.5048 55.1251 12.2688 55.3182 12.1983 55.3747ZM11.381 54.9906C11.3911 54.9078 11.421 54.8501 11.4287 54.835C11.4729 54.7492 11.5565 54.6788 11.545 54.6886C11.4088 54.8031 12.2777 54.0723 12.922 52.9512C13.6496 51.6852 13.3546 51.0133 13.2198 50.7463C13.1045 50.5177 12.8479 50.1248 11.8172 50.1894C10.1538 50.2936 7.4276 51.5832 5.08035 53.2399C4.67854 53.5236 3.61161 54.3333 3.35543 54.7314C3.78398 55.4459 4.24285 56.1111 4.9793 56.9598C5.22479 57.2424 5.56835 57.5897 5.62065 57.6431C5.99215 58.0186 6.42249 58.4295 7.07382 58.9376C8.9049 60.3659 10.8944 61.2481 12.3358 60.9642C12.5972 60.9127 13.1289 60.7947 13.6194 60.1892C13.8488 59.906 14.0012 59.5799 14.0277 59.5234C14.0617 59.4506 14.1722 59.257 14.15 58.904C14.1487 58.8825 14.1516 58.5625 13.819 58.0163C13.4154 57.3535 12.7422 56.7634 12.2544 56.3521C11.2531 55.5078 10.0186 54.7296 10.0031 54.7084C9.98146 54.679 9.94883 54.6548 9.93837 54.62C9.93801 54.619 9.9464 54.5191 9.94681 54.5187C9.97409 54.4977 9.99573 54.4657 10.029 54.456C10.1011 54.435 10.1025 54.4478 10.1718 54.4762C10.5002 54.6111 10.9265 54.7873 11.381 54.9906Z" fill="black"/>
<path d="M47.3375 1.36034L47.3375 -2.73438L34.9997 2.63307L34.9997 4.78123L60.161 18.6088L39.1343 18.6088C38.4251 18.5831 37.8872 18.454 37.5199 18.222C37.1781 17.9896 36.9421 17.6672 36.8108 17.2544C36.7056 16.8674 36.6533 16.3901 36.6533 15.8225L36.6533 15.7064L34.9997 15.7064L34.9997 26.0001L36.6533 26.0001L36.6533 25.4971C36.6533 24.9292 36.7193 24.4005 36.85 23.9104C36.9814 23.4202 37.2441 23.0335 37.6376 22.7496C38.0578 22.4657 38.6748 22.3237 39.4885 22.3237L58.6254 22.3237C59.4653 22.3237 60.0823 22.4657 60.4761 22.7496C60.8698 23.0335 61.1323 23.4202 61.2636 23.9104C61.3948 24.4005 61.4604 24.9292 61.4604 25.4971L61.4604 26.0001L63.1143 26.0001L63.1143 16.825L40.4128 4.21824L47.3375 1.36034Z" fill="black"/>
<path fill-rule="evenodd" clip-rule="evenodd" d="M62.1983 5.37469C62.5506 5.5497 62.8955 5.73547 63.2024 5.9257C64.6664 6.83349 65.1328 7.56948 65.3236 7.92527C65.6994 8.62571 65.6589 9.16144 65.6469 9.33081C65.6263 9.62435 65.5407 9.95574 65.4176 10.211C65.1608 10.7441 64.581 11.727 63.336 12.1672C62.9202 12.3142 61.3682 12.8271 58.8404 11.3321C57.231 10.3803 56.0409 9.09801 55.6094 8.63909C55.5339 8.55834 55.0084 8.01114 54.2696 7.04917C53.4398 5.9686 52.8163 4.93795 52.7931 4.88475C52.6927 4.65372 52.8312 4.38412 53.4095 3.8215C53.529 3.705 53.9825 3.26374 55.0108 2.47612C55.3211 2.23833 56.4647 1.37535 57.7979 0.598753C59.5866 -0.443311 61.6097 -1.31004 63.0726 -0.883463C63.9728 -0.621012 64.3273 0.088086 64.3701 0.165686C64.9567 1.22854 64.5154 2.33174 64.4535 2.49672C64.3082 2.88485 63.9278 3.74672 62.7982 4.84087C62.5048 5.1251 62.2688 5.31821 62.1983 5.37469ZM61.381 4.99063C61.3911 4.90784 61.421 4.85005 61.4287 4.83497C61.4729 4.74917 61.5565 4.67885 61.545 4.68856C61.4088 4.80309 62.2777 4.07228 62.922 2.95123C63.6496 1.68516 63.3546 1.01332 63.2198 0.746345C63.1045 0.517741 62.8479 0.124817 61.8172 0.189364C60.1538 0.293597 57.4276 1.58322 55.0804 3.23986C54.6785 3.52363 53.6116 4.33328 53.3554 4.73139C53.784 5.44593 54.2429 6.11108 54.9793 6.95983C55.2248 7.24235 55.5683 7.58975 55.6207 7.64315C55.9921 8.01855 56.4225 8.42952 57.0738 8.93762C58.9049 10.3659 60.8944 11.2481 62.3358 10.9642C62.5972 10.9127 63.1289 10.7947 63.6194 10.1892C63.8488 9.90596 64.0012 9.57994 64.0277 9.5234C64.0617 9.45059 64.1722 9.25701 64.15 8.90404C64.1487 8.88252 64.1516 8.56248 63.819 8.01626C63.4154 7.35347 62.7422 6.76343 62.2544 6.35208C61.2531 5.50779 60.0186 4.72955 60.0031 4.70843C59.9815 4.67898 59.9488 4.65484 59.9384 4.62C59.938 4.61895 59.9464 4.51905 59.9468 4.51872C59.9741 4.49767 59.9957 4.46566 60.029 4.45601C60.1011 4.43502 60.1025 4.44782 60.1718 4.47622C60.5002 4.61109 60.9265 4.78734 61.381 4.99063Z" fill="black"/>
<path d="M1.36034 3.31684H-2.73437L2.63307 15.6546H4.78123L18.6088 -9.50673L18.6088 11.52C18.5831 12.2291 18.454 12.7671 18.222 13.1344C17.9896 13.4762 17.6672 13.7122 17.2544 13.8435C16.8674 13.9487 16.3901 14.001 15.8225 14.001H15.7064V15.6546H26.0001V14.001H25.4971C24.9292 14.001 24.4005 13.935 23.9104 13.8043C23.4202 13.6729 23.0335 13.4102 22.7496 13.0167C22.4657 12.5965 22.3237 11.9795 22.3237 11.1658L22.3237 -7.97106C22.3237 -8.81105 22.4657 -9.42797 22.7496 -9.82176C23.0335 -10.2155 23.4202 -10.478 23.9104 -10.6093C24.4005 -10.7405 24.9292 -10.8061 25.4971 -10.8061L26.0001 -10.8061V-12.46L16.825 -12.46L4.21824 10.2415L1.36034 3.31684Z" fill="black"/>
<path d="M75 14.001V15.6546L86.8517 15.6546C89.6662 15.6546 92.0029 15.0775 93.862 13.922C94.7336 13.3805 96.5359 11.8392 97.2144 10.6219L94.9177 5.34491C94.7892 6.36369 94.2543 7.88831 94.1529 8.15162C93.4815 9.93658 92.4419 11.3233 91.0734 12.2684C89.7307 13.1873 88.0265 13.6468 85.9609 13.6468H82.5913V-10.4912H85.9996C88.0394 -10.4912 89.7307 -10.0186 91.0734 -9.0736C92.6171 -7.98705 93.7845 -4.76688 95.4547 -0.843894H99.6522C98.9231 -2.69007 98.1081 -4.54101 97.3651 -6.37001C96.3839 -8.47005 95.5532 -9.72986 93.6683 -10.8061C91.7834 -11.9087 89.5112 -12.46 86.8517 -12.46L75 -12.46V-10.8061H75.5035C76.0716 -10.8061 76.588 -10.7405 77.0528 -10.6093C77.5434 -10.5042 77.9306 -10.2549 78.2147 -9.86111C78.5245 -9.49359 78.6795 -8.91608 78.6795 -8.12857V11.1658C78.6795 11.9795 78.5374 12.5965 78.2534 13.0167C77.9694 13.4102 77.5821 13.6729 77.0915 13.8043C76.6267 13.935 76.0974 14.001 75.5035 14.001H75Z" fill="black"/>
<path d="M101.36 3.31684H97.2656L102.633 15.6546H104.781L118.609 -9.50673V11.52C118.583 12.2291 118.454 12.7671 118.222 13.1344C117.99 13.4762 117.667 13.7122 117.254 13.8435C116.867 13.9487 116.39 14.001 115.823 14.001H115.706V15.6546H126V14.001H125.497C124.929 14.001 124.401 13.935 123.91 13.8043C123.42 13.6729 123.033 13.4102 122.75 13.0167C122.466 12.5965 122.324 11.9795 122.324 11.1658V-7.97106C122.324 -8.81105 122.466 -9.42797 122.75 -9.82176C123.033 -10.2155 123.42 -10.478 123.91 -10.6093C124.401 -10.7405 124.929 -10.8061 125.497 -10.8061L126 -10.8061V-12.46L116.825 -12.46L104.218 10.2415L101.36 3.31684Z" fill="black"/>
<path d="M75 114.001V115.655H86.8517C89.6662 115.655 92.0029 115.077 93.862 113.922C94.7336 113.38 96.5359 111.839 97.2144 110.622L94.9177 105.345C94.7892 106.364 94.2543 107.888 94.1529 108.152C93.4815 109.937 92.4419 111.323 91.0734 112.268C89.7307 113.187 88.0265 113.647 85.9609 113.647H82.5913V89.5088H85.9996C88.0394 89.5088 89.7307 89.9814 91.0734 90.9264C92.6171 92.013 93.7845 95.2331 95.4547 99.1561H99.6522C98.9231 97.3099 98.1081 95.459 97.3651 93.63C96.3839 91.5299 95.5532 90.2701 93.6683 89.1939C91.7834 88.0913 89.5112 87.54 86.8517 87.54H75V89.1939H75.5035C76.0716 89.1939 76.588 89.2595 77.0528 89.3907C77.5434 89.4958 77.9306 89.7451 78.2147 90.1389C78.5245 90.5064 78.6795 91.0839 78.6795 91.8714V111.166C78.6795 111.98 78.5374 112.596 78.2534 113.017C77.9694 113.41 77.5821 113.673 77.0915 113.804C76.6267 113.935 76.0974 114.001 75.5035 114.001H75Z" fill="black"/>
<path d="M101.36 103.317H97.2656L102.633 115.655H104.781L118.609 90.4933V111.52C118.583 112.229 118.454 112.767 118.222 113.134C117.99 113.476 117.667 113.712 117.254 113.844C116.867 113.949 116.39 114.001 115.823 114.001H115.706V115.655H126V114.001H125.497C124.929 114.001 124.401 113.935 123.91 113.804C123.42 113.673 123.033 113.41 122.75 113.017C122.466 112.596 122.324 111.98 122.324 111.166V92.0289C122.324 91.1889 122.466 90.572 122.75 90.1782C123.033 89.7845 123.42 89.522 123.91 89.3907C124.401 89.2595 124.929 89.1939 125.497 89.1939H126V87.54H116.825L104.218 110.242L101.36 103.317Z" fill="black"/>
<path fill-rule="evenodd" clip-rule="evenodd" d="M105.375 88.456C105.55 88.1037 105.736 87.7588 105.926 87.4519C106.834 85.9879 107.57 85.5215 107.926 85.3307C108.626 84.9549 109.162 84.9954 109.331 85.0074C109.625 85.028 109.956 85.1136 110.212 85.2367C110.745 85.4935 111.728 86.0733 112.168 87.3183C112.315 87.7341 112.828 89.2861 111.333 91.8139C110.381 93.4233 109.098 94.6134 108.64 95.0449C108.559 95.1204 108.012 95.6459 107.05 96.3847C105.969 97.2145 104.938 97.838 104.885 97.8612C104.654 97.9616 104.385 97.8231 103.822 97.2448C103.705 97.1253 103.264 96.6718 102.477 95.6435C102.239 95.3332 101.376 94.1896 100.599 92.8564C99.5572 91.0677 98.6905 89.0446 99.117 87.5817C99.3795 86.6815 100.089 86.327 100.166 86.2842C101.229 85.6976 102.332 86.1389 102.497 86.2008C102.885 86.3461 103.747 86.7265 104.841 87.8561C105.126 88.1495 105.319 88.3855 105.375 88.456ZM104.991 89.2733C104.908 89.2632 104.851 89.2333 104.835 89.2256C104.75 89.1814 104.679 89.0978 104.689 89.1093C104.804 89.2455 104.073 88.3766 102.952 87.7323C101.686 87.0047 101.014 87.2997 100.747 87.4345C100.518 87.5498 100.125 87.8064 100.19 88.8371C100.294 90.5005 101.584 93.2267 103.24 95.5739C103.524 95.9758 104.334 97.0427 104.732 97.2989C105.446 96.8703 106.112 96.4114 106.96 95.675C107.243 95.4295 107.59 95.0859 107.644 95.0336C108.019 94.6621 108.43 94.2318 108.938 93.5805C110.366 91.7494 111.249 89.7599 110.965 88.3185C110.913 88.0571 110.795 87.5254 110.19 87.0349C109.906 86.8055 109.58 86.6531 109.524 86.6266C109.451 86.5926 109.258 86.4821 108.905 86.5042C108.883 86.5056 108.563 86.5027 108.017 86.8353C107.354 87.2389 106.764 87.9121 106.353 88.3999C105.508 89.4012 104.73 90.6357 104.709 90.6512C104.679 90.6728 104.655 90.7055 104.62 90.7159C104.619 90.7163 104.52 90.7079 104.519 90.7075C104.498 90.6802 104.466 90.6586 104.457 90.6253C104.436 90.5532 104.448 90.5518 104.477 90.4825C104.612 90.154 104.788 89.7278 104.991 89.2733Z" fill="black"/>
<path d="M1.36034 103.317H-2.73437L2.63307 115.655H4.78123L18.6088 90.4933L18.6088 111.52C18.5831 112.229 18.454 112.767 18.222 113.134C17.9896 113.476 17.6672 113.712 17.2544 113.844C16.8674 113.949 16.3901 114.001 15.8225 114.001H15.7064V115.655H26.0001V114.001H25.4971C24.9292 114.001 24.4005 113.935 23.9104 113.804C23.4202 113.673 23.0335 113.41 22.7496 113.017C22.4657 112.596 22.3237 111.98 22.3237 111.166L22.3237 92.0289C22.3237 91.1889 22.4657 90.572 22.7496 90.1782C23.0335 89.7845 23.4202 89.522 23.9104 89.3907C24.4005 89.2595 24.9292 89.1939 25.4971 89.1939H26.0001V87.54H16.825L4.21824 110.242L1.36034 103.317Z" fill="black"/>
<path fill-rule="evenodd" clip-rule="evenodd" d="M5.37518 88.456C5.55019 88.1037 5.73596 87.7588 5.92619 87.4519C6.83398 85.9879 7.56997 85.5215 7.92576 85.3307C8.6262 84.9549 9.16193 84.9954 9.3313 85.0074C9.62484 85.028 9.95623 85.1136 10.2115 85.2367C10.7446 85.4935 11.7275 86.0733 12.1677 87.3183C12.3147 87.7341 12.8276 89.2861 11.3326 91.8139C10.3808 93.4233 9.09849 94.6134 8.63958 95.0449C8.55883 95.1204 8.01163 95.6459 7.04966 96.3847C5.96909 97.2145 4.93844 97.838 4.88524 97.8612C4.65421 97.9616 4.38461 97.8231 3.82199 97.2448C3.70549 97.1253 3.26422 96.6718 2.47661 95.6435C2.23882 95.3332 1.37584 94.1896 0.599241 92.8564C-0.442822 91.0677 -1.30955 89.0446 -0.882974 87.5817C-0.620523 86.6815 0.0885743 86.327 0.166175 86.2842C1.22903 85.6976 2.33223 86.1389 2.49721 86.2008C2.88534 86.3461 3.74721 86.7265 4.84136 87.8561C5.12559 88.1495 5.3187 88.3855 5.37518 88.456ZM4.99111 89.2733C4.90833 89.2632 4.85054 89.2333 4.83545 89.2256C4.74965 89.1814 4.67934 89.0978 4.68904 89.1093C4.80358 89.2455 4.07276 88.3766 2.95172 87.7323C1.68565 87.0047 1.01381 87.2997 0.746833 87.4345C0.51823 87.5498 0.125306 87.8064 0.189853 88.8371C0.294085 90.5005 1.58371 93.2267 3.24035 95.5739C3.52412 95.9758 4.33377 97.0427 4.73188 97.2989C5.44642 96.8703 6.11157 96.4114 6.96032 95.675C7.24284 95.4295 7.59024 95.0859 7.64363 95.0336C8.01904 94.6621 8.43 94.2318 8.93811 93.5805C10.3664 91.7494 11.2486 89.7599 10.9646 88.3185C10.9132 88.0571 10.7951 87.5254 10.1897 87.0349C9.90644 86.8055 9.58043 86.6531 9.52389 86.6266C9.45108 86.5926 9.2575 86.4821 8.90453 86.5042C8.88301 86.5056 8.56297 86.5027 8.01675 86.8353C7.35396 87.2389 6.76392 87.9121 6.35257 88.3999C5.50828 89.4012 4.73004 90.6357 4.70892 90.6512C4.67947 90.6728 4.65532 90.7055 4.62049 90.7159C4.61944 90.7163 4.51954 90.7079 4.51921 90.7075C4.49816 90.6802 4.46614 90.6586 4.4565 90.6253C4.43551 90.5532 4.44831 90.5518 4.47671 90.4825C4.61157 90.154 4.78783 89.7278 4.99111 89.2733Z" fill="black"/>
<path d="M36.6533 75L34.9997 75L34.9997 86.8517C34.9997 89.6662 35.5768 92.0029 36.7323 93.862C37.2738 94.7336 38.8151 96.5359 40.0324 97.2144L45.3094 94.9177C44.2906 94.7892 42.766 94.2543 42.5027 94.1529C40.7177 93.4815 39.331 92.4419 38.3859 91.0734C37.467 89.7307 37.0075 88.0265 37.0075 85.9609L37.0075 82.5913L61.1455 82.5913L61.1455 85.9996C61.1455 88.0394 60.6729 89.7307 59.7279 91.0734C58.6413 92.6171 55.4212 93.7845 51.4982 95.4547L51.4982 99.6522C53.3444 98.9231 55.1953 98.1081 57.0243 97.3651C59.1243 96.3839 60.3842 95.5532 61.4604 93.6683C62.563 91.7834 63.1143 89.5112 63.1143 86.8517L63.1143 75L61.4604 75L61.4604 75.5035C61.4604 76.0716 61.3948 76.588 61.2636 77.0528C61.1585 77.5434 60.9092 77.9306 60.5154 78.2147C60.1479 78.5245 59.5704 78.6795 58.7829 78.6795L39.4885 78.6795C38.6748 78.6795 38.0578 78.5374 37.6376 78.2534C37.2441 77.9694 36.9814 77.5821 36.85 77.0915C36.7193 76.6267 36.6533 76.0974 36.6533 75.5035L36.6533 75Z" fill="black"/>
<path d="M47.3375 101.36L47.3375 97.2656L34.9997 102.633L34.9997 104.781L60.161 118.609L39.1343 118.609C38.4251 118.583 37.8872 118.454 37.5199 118.222C37.1781 117.99 36.9421 117.667 36.8108 117.254C36.7056 116.867 36.6533 116.39 36.6533 115.823L36.6533 115.706L34.9997 115.706L34.9997 126L36.6533 126L36.6533 125.497C36.6533 124.929 36.7193 124.401 36.85 123.91C36.9814 123.42 37.2441 123.033 37.6376 122.75C38.0578 122.466 38.6748 122.324 39.4885 122.324L58.6254 122.324C59.4653 122.324 60.0823 122.466 60.4761 122.75C60.8698 123.033 61.1323 123.42 61.2636 123.91C61.3948 124.401 61.4604 124.929 61.4604 125.497L61.4604 126L63.1143 126L63.1143 116.825L40.4128 104.218L47.3375 101.36Z" fill="black"/>
<path fill-rule="evenodd" clip-rule="evenodd" d="M62.1983 105.375C62.5506 105.55 62.8955 105.735 63.2024 105.926C64.6664 106.833 65.1328 107.569 65.3236 107.925C65.6994 108.626 65.6589 109.161 65.6469 109.331C65.6263 109.624 65.5407 109.956 65.4176 110.211C65.1608 110.744 64.581 111.727 63.336 112.167C62.9202 112.314 61.3682 112.827 58.8404 111.332C57.231 110.38 56.0409 109.098 55.6094 108.639C55.5339 108.558 55.0084 108.011 54.2696 107.049C53.4398 105.969 52.8163 104.938 52.7931 104.885C52.6927 104.654 52.8312 104.384 53.4095 103.822C53.529 103.705 53.9825 103.264 55.0108 102.476C55.3211 102.238 56.4647 101.375 57.7979 100.599C59.5866 99.5567 61.6097 98.69 63.0726 99.1165C63.9728 99.379 64.3273 100.088 64.3701 100.166C64.9567 101.229 64.5154 102.332 64.4535 102.497C64.3082 102.885 63.9278 103.747 62.7982 104.841C62.5048 105.125 62.2688 105.318 62.1983 105.375ZM61.381 104.991C61.3911 104.908 61.421 104.85 61.4287 104.835C61.4729 104.749 61.5565 104.679 61.545 104.689C61.4088 104.803 62.2777 104.072 62.922 102.951C63.6496 101.685 63.3546 101.013 63.2198 100.746C63.1045 100.518 62.8479 100.125 61.8172 100.189C60.1538 100.294 57.4276 101.583 55.0804 103.24C54.6785 103.524 53.6116 104.333 53.3554 104.731C53.784 105.446 54.2429 106.111 54.9793 106.96C55.2248 107.242 55.5683 107.59 55.6207 107.643C55.9921 108.019 56.4225 108.43 57.0738 108.938C58.9049 110.366 60.8944 111.248 62.3358 110.964C62.5972 110.913 63.1289 110.795 63.6194 110.189C63.8488 109.906 64.0012 109.58 64.0277 109.523C64.0617 109.451 64.1722 109.257 64.15 108.904C64.1487 108.883 64.1516 108.562 63.819 108.016C63.4154 107.353 62.7422 106.763 62.2544 106.352C61.2531 105.508 60.0186 104.73 60.0031 104.708C59.9815 104.679 59.9488 104.655 59.9384 104.62C59.938 104.619 59.9464 104.519 59.9468 104.519C59.9741 104.498 59.9957 104.466 60.029 104.456C60.1011 104.435 60.1025 104.448 60.1718 104.476C60.5002 104.611 60.9265 104.787 61.381 104.991Z" fill="black"/>
<path d="M86.6533 25L84.9997 25L84.9997 36.8517C84.9997 39.6662 85.5768 42.0029 86.7323 43.862C87.2738 44.7336 88.8151 46.5359 90.0324 47.2144L95.3094 44.9177C94.2906 44.7892 92.766 44.2543 92.5027 44.1529C90.7177 43.4815 89.331 42.4419 88.3859 41.0734C87.467 39.7307 87.0075 38.0265 87.0075 35.9609L87.0075 32.5913L111.145 32.5913L111.145 35.9996C111.145 38.0394 110.673 39.7307 109.728 41.0734C108.641 42.6171 105.421 43.7845 101.498 45.4547L101.498 49.6522C103.344 48.9231 105.195 48.1081 107.024 47.3651C109.124 46.3839 110.384 45.5532 111.46 43.6683C112.563 41.7834 113.114 39.5112 113.114 36.8517L113.114 25L111.46 25L111.46 25.5035C111.46 26.0716 111.395 26.588 111.264 27.0528C111.159 27.5434 110.909 27.9306 110.515 28.2147C110.148 28.5245 109.57 28.6795 108.783 28.6795L89.4885 28.6795C88.6748 28.6795 88.0578 28.5374 87.6376 28.2534C87.2441 27.9694 86.9814 27.5821 86.85 27.0915C86.7193 26.6267 86.6533 26.0974 86.6533 25.5035L86.6533 25Z" fill="black"/>
<path d="M97.3375 51.3603L97.3375 47.2656L84.9997 52.6331L84.9997 54.7812L110.161 68.6088L89.1343 68.6088C88.4251 68.5831 87.8872 68.454 87.5199 68.222C87.1781 67.9896 86.9421 67.6672 86.8108 67.2544C86.7056 66.8674 86.6533 66.3901 86.6533 65.8225L86.6533 65.7064L84.9997 65.7064L84.9997 76.0001L86.6533 76.0001L86.6533 75.4971C86.6533 74.9292 86.7193 74.4005 86.85 73.9104C86.9814 73.4202 87.2441 73.0335 87.6376 72.7496C88.0578 72.4657 88.6748 72.3237 89.4885 72.3237L108.625 72.3237C109.465 72.3237 110.082 72.4657 110.476 72.7496C110.87 73.0335 111.132 73.4202 111.264 73.9104C111.395 74.4005 111.46 74.9292 111.46 75.4971L111.46 76.0001L113.114 76.0001L113.114 66.825L90.4128 54.2182L97.3375 51.3603Z" fill="black"/>
</g>
<defs>
<clipPath id="clip0_171_131">
<rect width="100" height="100" fill="white"/>
</clipPath>
</defs>
</svg>
